<?xml version="1.0" standalone="no"?>
<!DOCTYPE svg PUBLIC "-//W3C//DTD SVG 20010904//EN"
 "http://www.w3.org/TR/2001/REC-SVG-20010904/DTD/svg10.dtd">
<svg version="1.0" xmlns="http://www.w3.org/2000/svg"
 width="1440.000000pt" height="1440.000000pt" viewBox="0 0 1440.000000 1440.000000"
 preserveAspectRatio="xMidYMid meet">
<metadata>
Created by potrace 1.11, written by Peter Selinger 2001-2013
</metadata>
<g transform="translate(0.000000,1440.000000) scale(0.100000,-0.100000)"
fill="#000000" stroke="none">
<path d="M7408 11732 c-29 -19 -156 -166 -228 -265 -51 -68 -174 -159 -241
-177 -42 -12 -3703 -16 -3763 -5 -55 11 -381 -13 -421 -29 l-37 -16 4 -60 c5
-67 25 -103 77 -135 18 -11 55 -35 82 -53 71 -47 104 -50 186 -17 148 59 51
56 2067 55 1736 0 1852 -1 1885 -18 19 -9 43 -28 53 -42 18 -25 19 -80 18
-1540 0 -1285 2 -1532 15 -1625 8 -60 15 -177 15 -259 0 -105 6 -180 20 -255
11 -58 27 -169 35 -246 57 -504 58 -513 125 -769 21 -83 49 -216 60 -296 20
-136 34 -189 108 -400 16 -47 39 -134 51 -193 23 -116 41 -168 95 -274 18 -38
48 -113 65 -168 18 -55 56 -145 86 -200 29 -56 64 -129 78 -163 14 -33 46 -87
72 -119 26 -31 62 -87 81 -124 18 -37 54 -93 80 -124 25 -31 61 -82 79 -113
18 -32 54 -77 80 -102 26 -25 62 -66 80 -91 19 -25 53 -59 75 -74 23 -16 59
-51 81 -78 22 -28 61 -65 87 -82 27 -17 68 -53 92 -79 24 -26 62 -57 83 -68
22 -11 68 -46 102 -78 35 -33 99 -77 142 -99 43 -23 99 -59 124 -81 25 -22 81
-55 125 -73 43 -19 111 -56 149 -84 43 -31 99 -60 145 -75 48 -16 103 -45 152
-81 63 -45 92 -58 150 -71 40 -9 94 -21 120 -27 30 -7 74 -30 114 -60 78 -58
97 -63 274 -84 127 -14 141 -18 250 -69 177 -83 164 -81 670 -81 425 0 447 1
485 20 47 23 65 62 47 97 -7 13 -27 44 -46 70 -19 26 -46 80 -61 120 -15 40
-49 111 -76 158 -38 66 -56 116 -84 225 -20 77 -53 194 -75 260 -47 146 -64
228 -85 410 -9 77 -23 181 -31 231 -8 50 -14 122 -15 160 0 38 -4 92 -10 119
-5 28 -13 131 -18 230 -5 105 -18 224 -30 285 -25 128 -43 291 -46 426 -1 56
-6 107 -9 113 -10 16 -52 13 -70 -5 -10 -10 -16 -34 -16 -67 -1 -29 -7 -88
-16 -132 -26 -140 -52 -337 -59 -435 -14 -217 -38 -432 -60 -545 -38 -193 -90
-575 -105 -769 -14 -183 -36 -196 -307 -178 -202 13 -249 24 -336 80 -80 50
-101 58 -222 81 -126 24 -135 28 -219 90 -47 35 -91 58 -140 72 -91 27 -120
42 -179 91 -27 23 -72 52 -100 65 -29 14 -77 48 -107 77 -30 29 -82 69 -115
89 -70 41 -443 399 -501 480 -21 28 -60 78 -87 110 -27 32 -62 84 -77 115 -15
31 -46 80 -69 107 -23 28 -64 95 -91 151 -26 55 -64 125 -83 155 -39 62 -54
94 -102 224 -18 50 -52 133 -75 185 -24 52 -51 128 -62 170 -10 41 -45 156
-77 255 -42 129 -64 213 -75 297 -9 65 -23 171 -32 235 -9 65 -33 186 -54 268
-47 187 -68 350 -81 620 -5 116 -11 216 -14 223 -2 7 -5 154 -5 327 -1 272 1
319 15 349 42 87 157 70 294 -44 34 -28 81 -59 106 -70 25 -11 69 -42 98 -69
29 -27 81 -65 115 -85 35 -20 96 -62 135 -95 40 -32 93 -69 120 -81 26 -12 64
-42 85 -65 21 -24 62 -57 92 -75 30 -17 80 -56 110 -85 30 -29 74 -65 98 -79
23 -15 77 -57 120 -94 42 -37 101 -85 129 -106 29 -20 62 -50 73 -66 11 -16
49 -49 84 -74 35 -25 78 -63 95 -85 18 -22 53 -56 79 -75 26 -19 63 -56 82
-83 18 -26 51 -63 72 -81 21 -19 53 -55 70 -80 17 -26 62 -81 98 -122 36 -41
83 -97 102 -125 20 -27 53 -66 73 -85 20 -19 54 -60 75 -91 22 -31 53 -68 69
-82 41 -34 124 -61 166 -53 58 11 79 49 121 218 34 134 38 167 38 268 0 113
-1 117 -52 254 -40 107 -63 155 -105 210 -29 39 -65 90 -80 114 -15 23 -51 58
-80 76 -29 19 -70 54 -93 78 -23 26 -68 57 -108 76 -38 18 -99 57 -137 87 -44
34 -92 61 -134 75 -36 12 -87 37 -113 56 -87 62 -129 85 -197 103 -37 11 -79
28 -94 40 -88 69 -134 94 -222 120 -74 21 -110 39 -170 82 -61 44 -93 60 -162
78 -66 17 -107 36 -167 76 -44 30 -102 61 -128 70 -100 35 -128 52 -142 86
-13 30 -12 36 19 93 44 80 54 91 131 141 36 23 74 52 85 65 11 13 61 56 110
95 50 40 106 89 125 110 19 20 60 55 91 77 31 21 71 57 88 79 18 21 55 57 84
78 29 21 65 57 82 79 16 22 46 50 65 63 32 21 60 46 242 223 38 36 85 77 105
92 21 15 67 57 103 93 36 36 83 82 105 101 22 19 54 51 72 70 17 19 73 74 125
122 51 48 163 152 248 231 85 79 170 152 187 161 18 9 76 25 128 36 117 24
151 41 172 85 15 31 15 37 -1 80 -28 71 -75 126 -141 162 -33 18 -78 53 -100
77 -22 24 -65 58 -95 76 -30 18 -74 53 -97 79 -43 50 -186 141 -220 141 -11 0
-32 -9 -46 -20 -36 -29 -153 -209 -197 -306 -21 -44 -59 -109 -85 -145 -26
-35 -60 -91 -75 -124 -15 -33 -48 -85 -72 -115 -25 -30 -64 -88 -86 -128 -23
-40 -62 -98 -87 -129 -26 -31 -62 -86 -80 -122 -18 -37 -50 -82 -70 -101 -20
-19 -57 -72 -82 -117 -25 -45 -71 -110 -103 -145 -31 -35 -70 -83 -87 -108
-17 -25 -45 -58 -63 -75 -17 -16 -47 -57 -65 -90 -19 -33 -50 -76 -70 -95 -21
-19 -55 -62 -78 -95 -22 -33 -102 -123 -177 -200 -76 -77 -156 -164 -178 -193
-95 -122 -223 -250 -272 -271 -53 -23 -132 -27 -176 -11 -38 15 -164 139 -181
178 -11 28 -14 210 -13 1124 0 745 4 1103 11 1127 15 51 27 65 91 103 59 34
191 170 203 208 11 35 -14 77 -64 110 -25 16 -59 48 -76 71 -16 22 -51 56 -76
75 -26 19 -64 58 -86 86 -40 53 -181 158 -212 158 -9 0 -28 -8 -43 -18z"/>
</g>
</svg>
